<?xml version="1.0" encoding="UTF-8" standalone="no"?>
<!-- Created with Inkscape (http://www.inkscape.org/) -->

<svg
   xmlns:dc="http://purl.org/dc/elements/1.1/"
   xmlns:cc="http://creativecommons.org/ns#"
   xmlns:rdf="http://www.w3.org/1999/02/22-rdf-syntax-ns#"
   xmlns:svg="http://www.w3.org/2000/svg"
   xmlns="http://www.w3.org/2000/svg"
   xmlns:sodipodi="http://sodipodi.sourceforge.net/DTD/sodipodi-0.dtd"
   xmlns:inkscape="http://www.inkscape.org/namespaces/inkscape"
   width="1920"
   height="1080"
   viewBox="0 0 507.99999 285.75001"
   version="1.1"
   id="svg134"
   inkscape:version="0.91 r13725"
   sodipodi:docname="wallpaper1.svg"
   inkscape:export-filename="/home/gen1e/Pictures/tiger-os-test/wallpaper1-1920x1080.png"
   inkscape:export-xdpi="89.774963"
   inkscape:export-ydpi="89.774963">
  <defs
     id="defs128" />
  <sodipodi:namedview
     id="base"
     pagecolor="#ffffff"
     bordercolor="#666666"
     borderopacity="1.0"
     inkscape:pageopacity="0.0"
     inkscape:pageshadow="2"
     inkscape:zoom="0.41053452"
     inkscape:cx="936.22511"
     inkscape:cy="547.0088"
     inkscape:document-units="mm"
     inkscape:current-layer="layer1"
     showgrid="false"
     units="px"
     inkscape:window-width="1366"
     inkscape:window-height="715"
     inkscape:window-x="0"
     inkscape:window-y="25"
     inkscape:window-maximized="1" />
  <metadata
     id="metadata131">
    <rdf:RDF>
      <cc:Work
         rdf:about="">
        <dc:format>image/svg+xml</dc:format>
        <dc:type
           rdf:resource="http://purl.org/dc/dcmitype/StillImage" />
        <dc:title />
      </cc:Work>
    </rdf:RDF>
  </metadata>
  <g
     inkscape:label="Layer 1"
     inkscape:groupmode="layer"
     id="layer1"
     transform="translate(0,-11.249983)"
     style="display:inline">
    <rect
       id="rect281"
       width="509.27332"
       height="287.55197"
       x="0"
       y="10.81947"
       style="fill:#f36e21;fill-opacity:1;stroke-width:0.26458332" />
  </g>
  <g
     inkscape:groupmode="layer"
     id="layer2"
     inkscape:label="Layer 2"
     style="display:inline">
    <ellipse
       style="display:inline;opacity:1;fill:#f36e21;fill-opacity:1;stroke:#f36e21;stroke-width:0.51278311;stroke-miterlimit:4;stroke-dasharray:none;stroke-opacity:1"
       id="path3336"
       cx="254"
       cy="142.875"
       rx="46.815304"
       ry="47.478237" />
    <ellipse
       style="display:inline;opacity:1;fill:#ffffff;fill-opacity:1;stroke:#f36e21;stroke-width:0.49148217;stroke-miterlimit:4;stroke-dasharray:none;stroke-opacity:1"
       id="path3370"
       cx="254.19736"
       cy="142.95529"
       rx="34.672848"
       ry="35.201569" />
    <path
       style="display:inline;fill:#f36e21;fill-opacity:1;fill-rule:evenodd;stroke:#f36e21;stroke-width:0.27891329px;stroke-linecap:butt;stroke-linejoin:miter;stroke-opacity:1"
       d="m 254.90776,107.0168 c -3.53689,0.0349 -6.23486,1.14862 -9.42981,1.62328 5.02115,-0.70866 7.78621,2.74267 8.25155,3.49077 1.43588,-1.28664 4.36261,-3.7086 10.04397,-3.12056 -3.63298,-1.53608 -6.44574,-2.01738 -8.86571,-1.99349 z m -1.17826,5.11405 c -0.009,0.008 -0.0206,0.0175 -0.0291,0.0252 0.12532,0.17774 0.13268,0.14137 0.0291,-0.0252 z"
       id="path3372"
       inkscape:connector-curvature="0" />
    <path
       style="display:inline;fill:#000000;stroke:#000000;stroke-width:0.26458332px;stroke-linecap:butt;stroke-linejoin:miter;stroke-opacity:1"
       d="m 259.77269,122.88394 c 3.02284,-4.94663 3.38333,-2.82017 5.92075,0 -3.06851,-1.74052 -2.36236,-2.66847 -5.92075,0 z"
       id="path3739"
       inkscape:connector-curvature="0"
       sodipodi:nodetypes="ccc" />
    <path
       style="display:inline;fill:#000000;stroke:#000000;stroke-width:0.26458332px;stroke-linecap:butt;stroke-linejoin:miter;stroke-opacity:1"
       d="m 242.01772,122.70888 c 3.02284,-4.94663 3.38333,-2.82017 5.92074,0 -3.0685,-1.74052 -2.36235,-2.66847 -5.92074,0 z"
       id="path3739-3"
       inkscape:connector-curvature="0"
       sodipodi:nodetypes="ccc" />
    <path
       style="opacity:1;fill:#ffd42a;fill-rule:evenodd;stroke:#ffd42a;stroke-width:0.28222224;stroke-opacity:1"
       d="m 245.90828,133.4426 c 4.77017,-0.3628 6.32211,-1.36925 8.61575,-2.22736 1.70809,1.01437 5.22759,1.95122 8.49596,2.4455 -2.40957,2.69534 -5.06792,5.14189 -9.03886,6.27585 -4.11425,-1.80884 -5.99148,-4.17693 -8.07285,-6.49399 z"
       id="path3489"
       inkscape:connector-curvature="0"
       sodipodi:nodetypes="ccccc" />
    <ellipse
       ry="29.429005"
       rx="14.060902"
       cy="142.38931"
       cx="285.44876"
       id="ellipse4451"
       style="display:inline;opacity:1;fill:#f36e21;fill-opacity:1;stroke:#f36e21;stroke-width:0.58652937;stroke-miterlimit:4;stroke-dasharray:none;stroke-opacity:1" />
    <ellipse
       ry="27.947308"
       rx="13.67417"
       cy="142.95753"
       cx="222.10399"
       id="ellipse4451-3"
       style="display:inline;opacity:1;fill:#f36e21;fill-opacity:1;stroke:#f36e21;stroke-width:0.56365824;stroke-miterlimit:4;stroke-dasharray:none;stroke-opacity:1" />
    <path
       sodipodi:nodetypes="ccc"
       inkscape:connector-curvature="0"
       id="path4467-6"
       d="m 233.07382,129.68233 c -7.79679,2.47935 -3.99283,3.98195 -3.99283,3.98195 -34.9522,-10.58517 -4.57618,-3.37473 3.99283,-3.98195 z"
       style="display:inline;fill:#000000;fill-rule:evenodd;stroke:#000000;stroke-width:0.08043713px;stroke-linecap:butt;stroke-linejoin:miter;stroke-opacity:1" />
    <path
       sodipodi:nodetypes="ccc"
       inkscape:connector-curvature="0"
       id="path4469-7"
       d="m 231.64209,149.15422 c -7.7968,2.47935 -3.99283,3.98195 -3.99283,3.98195 -34.9522,-10.58517 -4.57618,-3.37473 3.99283,-3.98195 z"
       style="display:inline;fill:#000000;fill-rule:evenodd;stroke:#000000;stroke-width:0.08043713px;stroke-linecap:butt;stroke-linejoin:miter;stroke-opacity:1" />
    <path
       sodipodi:nodetypes="ccc"
       inkscape:connector-curvature="0"
       id="path4471-5"
       d="m 231.64209,142.33872 c -7.7968,2.47934 -3.99283,3.98195 -3.99283,3.98195 -34.9522,-10.58517 -4.57618,-3.37473 3.99283,-3.98195 z"
       style="display:inline;fill:#000000;fill-rule:evenodd;stroke:#000000;stroke-width:0.08043713px;stroke-linecap:butt;stroke-linejoin:miter;stroke-opacity:1" />
    <path
       sodipodi:nodetypes="ccc"
       inkscape:connector-curvature="0"
       id="path4473-3"
       d="m 232.2076,136.07582 c -7.79679,2.47935 -3.99283,3.98195 -3.99283,3.98195 -34.95218,-10.58517 -4.57616,-3.37472 3.99283,-3.98195 z"
       style="display:inline;fill:#000000;fill-rule:evenodd;stroke:#000000;stroke-width:0.08043713px;stroke-linecap:butt;stroke-linejoin:miter;stroke-opacity:1" />
    <path
       sodipodi:nodetypes="ccc"
       inkscape:connector-curvature="0"
       id="path4475-5"
       d="m 232.2076,156.15393 c -7.79679,2.47935 -3.99283,3.98194 -3.99283,3.98194 -34.95218,-10.58517 -4.57616,-3.37472 3.99283,-3.98194 z"
       style="display:inline;fill:#000000;fill-rule:evenodd;stroke:#000000;stroke-width:0.08043713px;stroke-linecap:butt;stroke-linejoin:miter;stroke-opacity:1" />
    <path
       sodipodi:nodetypes="ccc"
       inkscape:connector-curvature="0"
       id="path4467"
       d="m 275.17315,129.14556 c 7.5357,2.47934 3.85912,3.98195 3.85912,3.98195 33.78175,-10.58518 4.42293,-3.37473 -3.85912,-3.98195 z"
       style="display:inline;fill:#000000;fill-rule:evenodd;stroke:#000000;stroke-width:0.07907887px;stroke-linecap:butt;stroke-linejoin:miter;stroke-opacity:1" />
    <path
       sodipodi:nodetypes="ccc"
       inkscape:connector-curvature="0"
       id="path4469"
       d="m 276.55694,148.61745 c 7.5357,2.47934 3.85912,3.98195 3.85912,3.98195 33.78175,-10.58517 4.42292,-3.37473 -3.85912,-3.98195 z"
       style="display:inline;fill:#000000;fill-rule:evenodd;stroke:#000000;stroke-width:0.07907887px;stroke-linecap:butt;stroke-linejoin:miter;stroke-opacity:1" />
    <path
       sodipodi:nodetypes="ccc"
       inkscape:connector-curvature="0"
       id="path4471"
       d="m 276.55694,141.80195 c 7.5357,2.47934 3.85912,3.98194 3.85912,3.98194 33.78175,-10.58517 4.42292,-3.37473 -3.85912,-3.98194 z"
       style="display:inline;fill:#000000;fill-rule:evenodd;stroke:#000000;stroke-width:0.07907887px;stroke-linecap:butt;stroke-linejoin:miter;stroke-opacity:1" />
    <path
       sodipodi:nodetypes="ccc"
       inkscape:connector-curvature="0"
       id="path4473"
       d="m 276.01035,135.53905 c 7.5357,2.47934 3.85913,3.98195 3.85913,3.98195 33.78174,-10.58518 4.42293,-3.37473 -3.85913,-3.98195 z"
       style="display:inline;fill:#000000;fill-rule:evenodd;stroke:#000000;stroke-width:0.07907887px;stroke-linecap:butt;stroke-linejoin:miter;stroke-opacity:1" />
    <path
       sodipodi:nodetypes="ccc"
       inkscape:connector-curvature="0"
       id="path4475"
       d="m 276.01035,155.61715 c 7.5357,2.47934 3.85912,3.98195 3.85912,3.98195 33.78175,-10.58517 4.42294,-3.37473 -3.85912,-3.98195 z"
       style="display:inline;fill:#000000;fill-rule:evenodd;stroke:#000000;stroke-width:0.07907887px;stroke-linecap:butt;stroke-linejoin:miter;stroke-opacity:1" />
  </g>
</svg>
